<mxfile host="app.diagrams.net" agent="Mozilla/5.0 (Windows NT 10.0; Win64; x64) AppleWebKit/537.36 (KHTML, like Gecko) Chrome/138.0.0.0 Safari/537.36" version="27.1.6">
  <diagram name="PÃ¡gina-1" id="esPIXZYzyLC4NXMFk4m4">
    <mxGraphModel grid="1" page="1" gridSize="10" guides="1" tooltips="1" connect="1" arrows="1" fold="1" pageScale="1" pageWidth="827" pageHeight="1169" math="0" shadow="0">
      <root>
        <mxCell id="0" />
        <mxCell id="1" parent="0" />
        <mxCell id="iabGYzuJgo18soV1GwnZ-1" value="Usuario" style="html=1;whiteSpace=wrap;" vertex="1" parent="1">
          <mxGeometry x="106.25" y="60" width="110" height="50" as="geometry" />
        </mxCell>
        <mxCell id="iabGYzuJgo18soV1GwnZ-2" value="Sistema&lt;span style=&quot;color: rgba(0, 0, 0, 0); font-family: monospace; font-size: 0px; text-align: start; text-wrap-mode: nowrap;&quot;&gt;%3CmxGraphModel%3E%3Croot%3E%3CmxCell%20id%3D%220%22%2F%3E%3CmxCell%20id%3D%221%22%20parent%3D%220%22%2F%3E%3CmxCell%20id%3D%222%22%20value%3D%22Usuario%22%20style%3D%22html%3D1%3BwhiteSpace%3Dwrap%3B%22%20vertex%3D%221%22%20parent%3D%221%22%3E%3CmxGeometry%20x%3D%2270%22%20y%3D%2240%22%20width%3D%22110%22%20height%3D%2250%22%20as%3D%22geometry%22%2F%3E%3C%2FmxCell%3E%3C%2Froot%3E%3C%2FmxGraphModel%3E&lt;/span&gt;" style="html=1;whiteSpace=wrap;" vertex="1" parent="1">
          <mxGeometry x="306.25" y="60" width="110" height="50" as="geometry" />
        </mxCell>
        <mxCell id="iabGYzuJgo18soV1GwnZ-3" value="Base de datos" style="html=1;whiteSpace=wrap;" vertex="1" parent="1">
          <mxGeometry x="506.25" y="60" width="110" height="50" as="geometry" />
        </mxCell>
        <mxCell id="iabGYzuJgo18soV1GwnZ-4" value="Usuario&amp;nbsp;" style="html=1;whiteSpace=wrap;" vertex="1" parent="1">
          <mxGeometry x="108.75" y="820" width="110" height="50" as="geometry" />
        </mxCell>
        <mxCell id="iabGYzuJgo18soV1GwnZ-5" value="Sistema&lt;span style=&quot;color: rgba(0, 0, 0, 0); font-family: monospace; font-size: 0px; text-align: start; text-wrap-mode: nowrap;&quot;&gt;%3CmxGraphModel%3E%3Croot%3E%3CmxCell%20id%3D%220%22%2F%3E%3CmxCell%20id%3D%221%22%20parent%3D%220%22%2F%3E%3CmxCell%20id%3D%222%22%20value%3D%22Usuario%22%20style%3D%22html%3D1%3BwhiteSpace%3Dwrap%3B%22%20vertex%3D%221%22%20parent%3D%221%22%3E%3CmxGeometry%20x%3D%2270%22%20y%3D%2240%22%20width%3D%22110%22%20height%3D%2250%22%20as%3D%22geometry%22%2F%3E%3C%2FmxCell%3E%3C%2Froot%3E%3C%2FmxGraphModel%3E&lt;/span&gt;" style="html=1;whiteSpace=wrap;" vertex="1" parent="1">
          <mxGeometry x="306.25" y="830" width="110" height="50" as="geometry" />
        </mxCell>
        <mxCell id="iabGYzuJgo18soV1GwnZ-6" value="Base de datos" style="html=1;whiteSpace=wrap;" vertex="1" parent="1">
          <mxGeometry x="497.5" y="830" width="110" height="50" as="geometry" />
        </mxCell>
        <mxCell id="iabGYzuJgo18soV1GwnZ-12" value="3. Consultar encuesta" style="text;html=1;align=center;verticalAlign=middle;whiteSpace=wrap;rounded=0;" vertex="1" parent="1">
          <mxGeometry x="366.25" y="230" width="170" height="20" as="geometry" />
        </mxCell>
        <mxCell id="iabGYzuJgo18soV1GwnZ-13" value="" style="endArrow=classic;html=1;rounded=0;entryX=0;entryY=0;entryDx=0;entryDy=5;entryPerimeter=0;" edge="1" parent="1" target="iabGYzuJgo18soV1GwnZ-33">
          <mxGeometry width="50" height="50" relative="1" as="geometry">
            <mxPoint x="366.25" y="255" as="sourcePoint" />
            <mxPoint x="641.25" y="250" as="targetPoint" />
          </mxGeometry>
        </mxCell>
        <mxCell id="iabGYzuJgo18soV1GwnZ-14" value="" style="endArrow=none;dashed=1;html=1;rounded=0;exitX=0.5;exitY=0;exitDx=0;exitDy=0;entryX=0.5;entryY=1;entryDx=0;entryDy=0;" edge="1" parent="1" source="iabGYzuJgo18soV1GwnZ-33" target="iabGYzuJgo18soV1GwnZ-3">
          <mxGeometry width="50" height="50" relative="1" as="geometry">
            <mxPoint x="561.25" y="910" as="sourcePoint" />
            <mxPoint x="561.25" y="500" as="targetPoint" />
          </mxGeometry>
        </mxCell>
        <mxCell id="iabGYzuJgo18soV1GwnZ-15" value="" style="endArrow=none;dashed=1;html=1;rounded=0;exitX=0.449;exitY=-0.016;exitDx=0;exitDy=0;exitPerimeter=0;entryX=0.452;entryY=0.991;entryDx=0;entryDy=0;entryPerimeter=0;" edge="1" parent="1" source="iabGYzuJgo18soV1GwnZ-24" target="iabGYzuJgo18soV1GwnZ-1">
          <mxGeometry width="50" height="50" relative="1" as="geometry">
            <mxPoint x="150.25" y="909" as="sourcePoint" />
            <mxPoint x="148.58000000000004" y="220.51" as="targetPoint" />
            <Array as="points" />
          </mxGeometry>
        </mxCell>
        <mxCell id="iabGYzuJgo18soV1GwnZ-16" value="6. Enviar respuestas" style="text;html=1;align=center;verticalAlign=middle;whiteSpace=wrap;rounded=0;" vertex="1" parent="1">
          <mxGeometry x="165.25" y="390" width="190" height="20" as="geometry" />
        </mxCell>
        <mxCell id="iabGYzuJgo18soV1GwnZ-17" value="4. Retornar preguntas" style="text;html=1;align=center;verticalAlign=middle;whiteSpace=wrap;rounded=0;" vertex="1" parent="1">
          <mxGeometry x="367.75" y="280" width="170" height="20" as="geometry" />
        </mxCell>
        <mxCell id="iabGYzuJgo18soV1GwnZ-18" value="" style="endArrow=classic;html=1;rounded=0;entryX=1;entryY=0;entryDx=0;entryDy=5;entryPerimeter=0;" edge="1" parent="1" target="iabGYzuJgo18soV1GwnZ-23">
          <mxGeometry width="50" height="50" relative="1" as="geometry">
            <mxPoint x="556.25" y="305" as="sourcePoint" />
            <mxPoint x="248.75" y="260" as="targetPoint" />
          </mxGeometry>
        </mxCell>
        <mxCell id="iabGYzuJgo18soV1GwnZ-19" value="" style="endArrow=none;dashed=1;html=1;rounded=0;entryX=0.5;entryY=1;entryDx=0;entryDy=0;exitX=0.5;exitY=0;exitDx=0;exitDy=0;" edge="1" parent="1" source="iabGYzuJgo18soV1GwnZ-55" target="iabGYzuJgo18soV1GwnZ-2">
          <mxGeometry width="50" height="50" relative="1" as="geometry">
            <mxPoint x="361.25" y="520" as="sourcePoint" />
            <mxPoint x="366.25" y="490" as="targetPoint" />
            <Array as="points" />
          </mxGeometry>
        </mxCell>
        <mxCell id="iabGYzuJgo18soV1GwnZ-23" value="" style="html=1;points=[[0,0,0,0,5],[0,1,0,0,-5],[1,0,0,0,5],[1,1,0,0,-5]];perimeter=orthogonalPerimeter;outlineConnect=0;targetShapes=umlLifeline;portConstraint=eastwest;newEdgeStyle={&quot;curved&quot;:0,&quot;rounded&quot;:0};" vertex="1" parent="1">
          <mxGeometry x="357.75" y="300" width="10" height="30" as="geometry" />
        </mxCell>
        <mxCell id="iabGYzuJgo18soV1GwnZ-24" value="" style="html=1;points=[[0,0,0,0,5],[0,1,0,0,-5],[1,0,0,0,5],[1,1,0,0,-5]];perimeter=orthogonalPerimeter;outlineConnect=0;targetShapes=umlLifeline;portConstraint=eastwest;newEdgeStyle={&quot;curved&quot;:0,&quot;rounded&quot;:0};" vertex="1" parent="1">
          <mxGeometry x="151.25" y="150" width="10" height="30" as="geometry" />
        </mxCell>
        <mxCell id="iabGYzuJgo18soV1GwnZ-25" value="" style="endArrow=classic;html=1;rounded=0;entryX=1;entryY=0;entryDx=0;entryDy=5;entryPerimeter=0;dashed=1;" edge="1" parent="1" target="iabGYzuJgo18soV1GwnZ-24">
          <mxGeometry width="50" height="50" relative="1" as="geometry">
            <mxPoint x="360" y="155" as="sourcePoint" />
            <mxPoint x="475.75" y="126" as="targetPoint" />
          </mxGeometry>
        </mxCell>
        <mxCell id="iabGYzuJgo18soV1GwnZ-26" value="1. Notificacion con link de encuesta" style="text;html=1;align=center;verticalAlign=middle;whiteSpace=wrap;rounded=0;" vertex="1" parent="1">
          <mxGeometry x="178.75" y="130" width="170" height="20" as="geometry" />
        </mxCell>
        <mxCell id="iabGYzuJgo18soV1GwnZ-27" value="" style="html=1;points=[[0,0,0,0,5],[0,1,0,0,-5],[1,0,0,0,5],[1,1,0,0,-5]];perimeter=orthogonalPerimeter;outlineConnect=0;targetShapes=umlLifeline;portConstraint=eastwest;newEdgeStyle={&quot;curved&quot;:0,&quot;rounded&quot;:0};" vertex="1" parent="1">
          <mxGeometry x="356.25" y="200" width="10" height="30" as="geometry" />
        </mxCell>
        <mxCell id="iabGYzuJgo18soV1GwnZ-28" value="" style="endArrow=classic;html=1;rounded=0;entryX=0;entryY=0;entryDx=0;entryDy=5;entryPerimeter=0;" edge="1" parent="1" target="iabGYzuJgo18soV1GwnZ-27">
          <mxGeometry width="50" height="50" relative="1" as="geometry">
            <mxPoint x="153.75" y="204" as="sourcePoint" />
            <mxPoint x="485.75" y="110" as="targetPoint" />
            <Array as="points">
              <mxPoint x="313.75" y="204" />
            </Array>
          </mxGeometry>
        </mxCell>
        <mxCell id="iabGYzuJgo18soV1GwnZ-29" value="2. Clic en el link" style="text;html=1;align=center;verticalAlign=middle;whiteSpace=wrap;rounded=0;" vertex="1" parent="1">
          <mxGeometry x="168.75" y="180" width="170" height="20" as="geometry" />
        </mxCell>
        <mxCell id="iabGYzuJgo18soV1GwnZ-30" value="" style="endArrow=none;dashed=1;html=1;rounded=0;exitX=0.5;exitY=0;exitDx=0;exitDy=0;" edge="1" parent="1" source="iabGYzuJgo18soV1GwnZ-45" target="iabGYzuJgo18soV1GwnZ-24">
          <mxGeometry width="50" height="50" relative="1" as="geometry">
            <mxPoint x="151.25" y="825" as="sourcePoint" />
            <mxPoint x="156" y="460" as="targetPoint" />
            <Array as="points" />
          </mxGeometry>
        </mxCell>
        <mxCell id="iabGYzuJgo18soV1GwnZ-32" value="" style="endArrow=none;dashed=1;html=1;rounded=0;exitX=0.5;exitY=0;exitDx=0;exitDy=0;entryX=0.5;entryY=1;entryDx=0;entryDy=0;" edge="1" parent="1" source="iabGYzuJgo18soV1GwnZ-6" target="iabGYzuJgo18soV1GwnZ-33">
          <mxGeometry width="50" height="50" relative="1" as="geometry">
            <mxPoint x="557.5" y="530" as="sourcePoint" />
            <mxPoint x="561.25" y="200" as="targetPoint" />
          </mxGeometry>
        </mxCell>
        <mxCell id="iabGYzuJgo18soV1GwnZ-33" value="" style="html=1;points=[[0,0,0,0,5],[0,1,0,0,-5],[1,0,0,0,5],[1,1,0,0,-5]];perimeter=orthogonalPerimeter;outlineConnect=0;targetShapes=umlLifeline;portConstraint=eastwest;newEdgeStyle={&quot;curved&quot;:0,&quot;rounded&quot;:0};" vertex="1" parent="1">
          <mxGeometry x="553.75" y="250" width="10" height="30" as="geometry" />
        </mxCell>
        <mxCell id="iabGYzuJgo18soV1GwnZ-37" value="" style="endArrow=open;endSize=12;html=1;rounded=0;fontSize=12;curved=1;entryX=0;entryY=0;entryDx=0;entryDy=5;entryPerimeter=0;" edge="1" parent="1" target="iabGYzuJgo18soV1GwnZ-55">
          <mxGeometry width="160" relative="1" as="geometry">
            <mxPoint x="160" y="415" as="sourcePoint" />
            <mxPoint x="160" y="435" as="targetPoint" />
          </mxGeometry>
        </mxCell>
        <mxCell id="iabGYzuJgo18soV1GwnZ-41" value="alt" style="shape=umlFrame;whiteSpace=wrap;html=1;pointerEvents=0;" vertex="1" parent="1">
          <mxGeometry x="149.25" y="520" width="422" height="110" as="geometry" />
        </mxCell>
        <mxCell id="iabGYzuJgo18soV1GwnZ-42" value="8. NotificaciÃ³n de error: Datos invÃ¡lidos" style="text;html=1;align=center;verticalAlign=middle;whiteSpace=wrap;rounded=0;" vertex="1" parent="1">
          <mxGeometry x="172.75" y="565" width="190" height="20" as="geometry" />
        </mxCell>
        <mxCell id="iabGYzuJgo18soV1GwnZ-43" value="" style="endArrow=open;endSize=12;html=1;rounded=0;fontSize=12;curved=1;entryX=1;entryY=0;entryDx=0;entryDy=5;entryPerimeter=0;dashed=1;" edge="1" parent="1" target="iabGYzuJgo18soV1GwnZ-45">
          <mxGeometry width="160" relative="1" as="geometry">
            <mxPoint x="361.25" y="590" as="sourcePoint" />
            <mxPoint x="436" y="380" as="targetPoint" />
          </mxGeometry>
        </mxCell>
        <mxCell id="iabGYzuJgo18soV1GwnZ-44" value="" style="endArrow=none;dashed=1;html=1;rounded=0;exitX=0.5;exitY=0;exitDx=0;exitDy=0;" edge="1" parent="1" source="iabGYzuJgo18soV1GwnZ-4" target="iabGYzuJgo18soV1GwnZ-45">
          <mxGeometry width="50" height="50" relative="1" as="geometry">
            <mxPoint x="152.5" y="830" as="sourcePoint" />
            <mxPoint x="152.75" y="600" as="targetPoint" />
            <Array as="points" />
          </mxGeometry>
        </mxCell>
        <mxCell id="iabGYzuJgo18soV1GwnZ-45" value="&lt;span style=&quot;color: rgb(237, 237, 237); font-family: monospace; font-size: 0px; text-align: start;&quot;&gt;%3CmxGraphModel%3E%3Croot%3E%3CmxCell%20id%3D%220%22%2F%3E%3CmxCell%20id%3D%221%22%20parent%3D%220%22%2F%3E%3CmxCell%20id%3D%222%22%20value%3D%22%22%20style%3D%22html%3D1%3Bpoints%3D%5B%5B0%2C0%2C0%2C0%2C5%5D%2C%5B0%2C1%2C0%2C0%2C-5%5D%2C%5B1%2C0%2C0%2C0%2C5%5D%2C%5B1%2C1%2C0%2C0%2C-5%5D%5D%3Bperimeter%3DorthogonalPerimeter%3BoutlineConnect%3D0%3BtargetShapes%3DumlLifeline%3BportConstraint%3Deastwest%3BnewEdgeStyle%3D%7B%26quot%3Bcurved%26quot%3B%3A0%2C%26quot%3Brounded%26quot%3B%3A0%7D%3B%22%20vertex%3D%221%22%20parent%3D%221%22%3E%3CmxGeometry%20x%3D%2285%22%20y%3D%22280%22%20width%3D%2210%22%20height%3D%2230%22%20as%3D%22geometry%22%2F%3E%3C%2FmxCell%3E%3C%2Froot%3E%3C%2FmxGraphModel%3E&lt;/span&gt;&lt;span style=&quot;color: rgb(237, 237, 237); font-family: monospace; font-size: 0px; text-align: start;&quot;&gt;%3CmxGraphModel%3E%3Croot%3E%3CmxCell%20id%3D%220%22%2F%3E%3CmxCell%20id%3D%221%22%20parent%3D%220%22%2F%3E%3CmxCell%20id%3D%222%22%20value%3D%22%22%20style%3D%22html%3D1%3Bpoints%3D%5B%5B0%2C0%2C0%2C0%2C5%5D%2C%5B0%2C1%2C0%2C0%2C-5%5D%2C%5B1%2C0%2C0%2C0%2C5%5D%2C%5B1%2C1%2C0%2C0%2C-5%5D%5D%3Bperimeter%3DorthogonalPerimeter%3BoutlineConnect%3D0%3BtargetShapes%3DumlLifeline%3BportConstraint%3Deastwest%3BnewEdgeStyle%3D%7B%26quot%3Bcurved%26quot%3B%3A0%2C%26quot%3Brounded%26quot%3B%3A0%7D%3B%22%20vertex%3D%221%22%20parent%3D%221%22%3E%3CmxGeometry%20x%3D%2285%22%20y%3D%22280%22%20width%3D%2210%22%20height%3D%2230%22%20as%3D%22geometry%22%2F%3E%3C%2FmxCell%3E%3C%2Froot%3E%3C%2FmxGraphModel%3E&lt;/span&gt;" style="html=1;points=[[0,0,0,0,5],[0,1,0,0,-5],[1,0,0,0,5],[1,1,0,0,-5]];perimeter=orthogonalPerimeter;outlineConnect=0;targetShapes=umlLifeline;portConstraint=eastwest;newEdgeStyle={&quot;curved&quot;:0,&quot;rounded&quot;:0};" vertex="1" parent="1">
          <mxGeometry x="158.75" y="585" width="10" height="30" as="geometry" />
        </mxCell>
        <mxCell id="iabGYzuJgo18soV1GwnZ-47" value="[Error]" style="text;html=1;align=center;verticalAlign=middle;whiteSpace=wrap;rounded=0;" vertex="1" parent="1">
          <mxGeometry x="341.25" y="530" width="50" height="20" as="geometry" />
        </mxCell>
        <mxCell id="iabGYzuJgo18soV1GwnZ-52" value="5. Mostrar formulario" style="text;html=1;align=center;verticalAlign=middle;whiteSpace=wrap;rounded=0;" vertex="1" parent="1">
          <mxGeometry x="178.75" y="330" width="170" height="20" as="geometry" />
        </mxCell>
        <mxCell id="iabGYzuJgo18soV1GwnZ-53" value="" style="endArrow=classic;html=1;rounded=0;entryX=1;entryY=0;entryDx=0;entryDy=5;entryPerimeter=0;" edge="1" parent="1" target="iabGYzuJgo18soV1GwnZ-54">
          <mxGeometry width="50" height="50" relative="1" as="geometry">
            <mxPoint x="360" y="355" as="sourcePoint" />
            <mxPoint x="41" y="310" as="targetPoint" />
          </mxGeometry>
        </mxCell>
        <mxCell id="iabGYzuJgo18soV1GwnZ-54" value="" style="html=1;points=[[0,0,0,0,5],[0,1,0,0,-5],[1,0,0,0,5],[1,1,0,0,-5]];perimeter=orthogonalPerimeter;outlineConnect=0;targetShapes=umlLifeline;portConstraint=eastwest;newEdgeStyle={&quot;curved&quot;:0,&quot;rounded&quot;:0};" vertex="1" parent="1">
          <mxGeometry x="150" y="350" width="10" height="30" as="geometry" />
        </mxCell>
        <mxCell id="iabGYzuJgo18soV1GwnZ-56" value="" style="endArrow=none;dashed=1;html=1;rounded=0;entryX=0.5;entryY=1;entryDx=0;entryDy=0;exitX=0.5;exitY=0;exitDx=0;exitDy=0;" edge="1" parent="1" target="iabGYzuJgo18soV1GwnZ-55">
          <mxGeometry width="50" height="50" relative="1" as="geometry">
            <mxPoint x="360.25" y="470" as="sourcePoint" />
            <mxPoint x="361" y="110" as="targetPoint" />
            <Array as="points" />
          </mxGeometry>
        </mxCell>
        <mxCell id="iabGYzuJgo18soV1GwnZ-55" value="" style="html=1;points=[[0,0,0,0,5],[0,1,0,0,-5],[1,0,0,0,5],[1,1,0,0,-5]];perimeter=orthogonalPerimeter;outlineConnect=0;targetShapes=umlLifeline;portConstraint=eastwest;newEdgeStyle={&quot;curved&quot;:0,&quot;rounded&quot;:0};" vertex="1" parent="1">
          <mxGeometry x="355.25" y="410" width="10" height="30" as="geometry" />
        </mxCell>
        <mxCell id="iabGYzuJgo18soV1GwnZ-59" value="" style="endArrow=none;dashed=1;html=1;rounded=0;entryX=0.5;entryY=1;entryDx=0;entryDy=0;exitX=0.5;exitY=0;exitDx=0;exitDy=0;" edge="1" parent="1" source="iabGYzuJgo18soV1GwnZ-5">
          <mxGeometry width="50" height="50" relative="1" as="geometry">
            <mxPoint x="361" y="830" as="sourcePoint" />
            <mxPoint x="360.25" y="500" as="targetPoint" />
            <Array as="points" />
          </mxGeometry>
        </mxCell>
        <mxCell id="iabGYzuJgo18soV1GwnZ-60" value="7. Validar respuestas" style="text;html=1;align=center;verticalAlign=middle;whiteSpace=wrap;rounded=0;" vertex="1" parent="1">
          <mxGeometry x="401.25" y="475" width="96.25" height="20" as="geometry" />
        </mxCell>
        <mxCell id="iabGYzuJgo18soV1GwnZ-61" value="" style="endArrow=classic;html=1;rounded=0;entryX=1;entryY=1;entryDx=0;entryDy=-5;entryPerimeter=0;exitX=1;exitY=0;exitDx=0;exitDy=5;exitPerimeter=0;edgeStyle=orthogonalEdgeStyle;" edge="1" parent="1">
          <mxGeometry width="50" height="50" relative="1" as="geometry">
            <mxPoint x="363.75" y="475" as="sourcePoint" />
            <mxPoint x="363.75" y="495" as="targetPoint" />
            <Array as="points">
              <mxPoint x="397.5" y="495" />
            </Array>
          </mxGeometry>
        </mxCell>
        <mxCell id="iabGYzuJgo18soV1GwnZ-62" value="" style="html=1;points=[[0,0,0,0,5],[0,1,0,0,-5],[1,0,0,0,5],[1,1,0,0,-5]];perimeter=orthogonalPerimeter;outlineConnect=0;targetShapes=umlLifeline;portConstraint=eastwest;newEdgeStyle={&quot;curved&quot;:0,&quot;rounded&quot;:0};" vertex="1" parent="1">
          <mxGeometry x="356.25" y="470" width="10" height="30" as="geometry" />
        </mxCell>
        <mxCell id="iabGYzuJgo18soV1GwnZ-63" value="9. Guardar respuestas" style="text;html=1;align=center;verticalAlign=middle;whiteSpace=wrap;rounded=0;" vertex="1" parent="1">
          <mxGeometry x="362.75" y="650" width="170" height="20" as="geometry" />
        </mxCell>
        <mxCell id="iabGYzuJgo18soV1GwnZ-64" value="" style="endArrow=classic;html=1;rounded=0;entryX=0;entryY=0;entryDx=0;entryDy=5;entryPerimeter=0;" edge="1" parent="1" target="iabGYzuJgo18soV1GwnZ-66">
          <mxGeometry width="50" height="50" relative="1" as="geometry">
            <mxPoint x="362.75" y="675" as="sourcePoint" />
            <mxPoint x="637.75" y="670" as="targetPoint" />
          </mxGeometry>
        </mxCell>
        <mxCell id="iabGYzuJgo18soV1GwnZ-66" value="" style="html=1;points=[[0,0,0,0,5],[0,1,0,0,-5],[1,0,0,0,5],[1,1,0,0,-5]];perimeter=orthogonalPerimeter;outlineConnect=0;targetShapes=umlLifeline;portConstraint=eastwest;newEdgeStyle={&quot;curved&quot;:0,&quot;rounded&quot;:0};" vertex="1" parent="1">
          <mxGeometry x="550.25" y="670" width="10" height="30" as="geometry" />
        </mxCell>
        <mxCell id="iabGYzuJgo18soV1GwnZ-68" value="10. ConfirmaciÃ³n&amp;nbsp;" style="text;html=1;align=center;verticalAlign=middle;whiteSpace=wrap;rounded=0;" vertex="1" parent="1">
          <mxGeometry x="367.75" y="700" width="170" height="20" as="geometry" />
        </mxCell>
        <mxCell id="iabGYzuJgo18soV1GwnZ-69" value="" style="endArrow=classic;html=1;rounded=0;entryX=1;entryY=0;entryDx=0;entryDy=5;entryPerimeter=0;" edge="1" parent="1" target="iabGYzuJgo18soV1GwnZ-70">
          <mxGeometry width="50" height="50" relative="1" as="geometry">
            <mxPoint x="556.25" y="725" as="sourcePoint" />
            <mxPoint x="248.75" y="680" as="targetPoint" />
          </mxGeometry>
        </mxCell>
        <mxCell id="iabGYzuJgo18soV1GwnZ-70" value="" style="html=1;points=[[0,0,0,0,5],[0,1,0,0,-5],[1,0,0,0,5],[1,1,0,0,-5]];perimeter=orthogonalPerimeter;outlineConnect=0;targetShapes=umlLifeline;portConstraint=eastwest;newEdgeStyle={&quot;curved&quot;:0,&quot;rounded&quot;:0};" vertex="1" parent="1">
          <mxGeometry x="357.75" y="720" width="10" height="30" as="geometry" />
        </mxCell>
        <mxCell id="iabGYzuJgo18soV1GwnZ-71" value="11. NotificaciÃ³n de Ã©xito: Encuesta enviada correctamente" style="text;html=1;align=center;verticalAlign=middle;whiteSpace=wrap;rounded=0;" vertex="1" parent="1">
          <mxGeometry x="174" y="750" width="190" height="20" as="geometry" />
        </mxCell>
        <mxCell id="iabGYzuJgo18soV1GwnZ-72" value="" style="endArrow=open;endSize=12;html=1;rounded=0;fontSize=12;curved=1;entryX=1;entryY=0;entryDx=0;entryDy=5;entryPerimeter=0;dashed=1;" edge="1" parent="1" target="iabGYzuJgo18soV1GwnZ-73">
          <mxGeometry width="160" relative="1" as="geometry">
            <mxPoint x="362.5" y="775" as="sourcePoint" />
            <mxPoint x="437.25" y="565" as="targetPoint" />
          </mxGeometry>
        </mxCell>
        <mxCell id="iabGYzuJgo18soV1GwnZ-73" value="&lt;span style=&quot;color: rgb(237, 237, 237); font-family: monospace; font-size: 0px; text-align: start;&quot;&gt;%3CmxGraphModel%3E%3Croot%3E%3CmxCell%20id%3D%220%22%2F%3E%3CmxCell%20id%3D%221%22%20parent%3D%220%22%2F%3E%3CmxCell%20id%3D%222%22%20value%3D%22%22%20style%3D%22html%3D1%3Bpoints%3D%5B%5B0%2C0%2C0%2C0%2C5%5D%2C%5B0%2C1%2C0%2C0%2C-5%5D%2C%5B1%2C0%2C0%2C0%2C5%5D%2C%5B1%2C1%2C0%2C0%2C-5%5D%5D%3Bperimeter%3DorthogonalPerimeter%3BoutlineConnect%3D0%3BtargetShapes%3DumlLifeline%3BportConstraint%3Deastwest%3BnewEdgeStyle%3D%7B%26quot%3Bcurved%26quot%3B%3A0%2C%26quot%3Brounded%26quot%3B%3A0%7D%3B%22%20vertex%3D%221%22%20parent%3D%221%22%3E%3CmxGeometry%20x%3D%2285%22%20y%3D%22280%22%20width%3D%2210%22%20height%3D%2230%22%20as%3D%22geometry%22%2F%3E%3C%2FmxCell%3E%3C%2Froot%3E%3C%2FmxGraphModel%3E&lt;/span&gt;&lt;span style=&quot;color: rgb(237, 237, 237); font-family: monospace; font-size: 0px; text-align: start;&quot;&gt;%3CmxGraphModel%3E%3Croot%3E%3CmxCell%20id%3D%220%22%2F%3E%3CmxCell%20id%3D%221%22%20parent%3D%220%22%2F%3E%3CmxCell%20id%3D%222%22%20value%3D%22%22%20style%3D%22html%3D1%3Bpoints%3D%5B%5B0%2C0%2C0%2C0%2C5%5D%2C%5B0%2C1%2C0%2C0%2C-5%5D%2C%5B1%2C0%2C0%2C0%2C5%5D%2C%5B1%2C1%2C0%2C0%2C-5%5D%5D%3Bperimeter%3DorthogonalPerimeter%3BoutlineConnect%3D0%3BtargetShapes%3DumlLifeline%3BportConstraint%3Deastwest%3BnewEdgeStyle%3D%7B%26quot%3Bcurved%26quot%3B%3A0%2C%26quot%3Brounded%26quot%3B%3A0%7D%3B%22%20vertex%3D%221%22%20parent%3D%221%22%3E%3CmxGeometry%20x%3D%2285%22%20y%3D%22280%22%20width%3D%2210%22%20height%3D%2230%22%20as%3D%22geometry%22%2F%3E%3C%2FmxCell%3E%3C%2Froot%3E%3C%2FmxGraphModel%3E&lt;/span&gt;" style="html=1;points=[[0,0,0,0,5],[0,1,0,0,-5],[1,0,0,0,5],[1,1,0,0,-5]];perimeter=orthogonalPerimeter;outlineConnect=0;targetShapes=umlLifeline;portConstraint=eastwest;newEdgeStyle={&quot;curved&quot;:0,&quot;rounded&quot;:0};" vertex="1" parent="1">
          <mxGeometry x="160" y="770" width="10" height="30" as="geometry" />
        </mxCell>
      </root>
    </mxGraphModel>
  </diagram>
</mxfile>
